# xmcd
# 
# Track frame offsets:
#     150
#     13349
#     25962
#     42097
#     55823
#     68424
#     80999
#     95205
#     108787
#     128085
#     142253
#     162313
#     177200
#     194073
#     207721
# 
# Disc length: 2972
# 
# Revision: 0
# Processed by: cddbd v1.5.2PL0 Copyright (c) Steve Scherf et al.
# Submitted via: BonkEnc v1.0
# 
DISCID=e10b9a0f
DTITLE=Joao Mulato and Douradinho - Carroca Velha
DYEAR=0
DGENRE=
TTITLE0=Paixao de Tres Lagoas
TTITLE1=Beijo Medroso
TTITLE2=Nao da Certo o Nosso Amor
TTITLE3=A Noite Um Beijo, De Dia Adeus
TTITLE4=Mulher Dividida
TTITLE5=O Nosso Episodio
TTITLE6=A Falta Sua
TTITLE7=A Mulher Que Eu Amava
TTITLE8=Carroca Velha
TTITLE9=Violeiro Sem Viola
TTITLE10=Carreteiro E Cantador
TTITLE11=Ilusao de Uma Vida
TTITLE12=Violeiro Furacao
TTITLE13=Anjos da Rua
TTITLE14=Viola Confianca da Lida
EXTD=
EXTT0=
EXTT1=
EXTT2=
EXTT3=
EXTT4=
EXTT5=
EXTT6=
EXTT7=
EXTT8=
EXTT9=
EXTT10=
EXTT11=
EXTT12=
EXTT13=
EXTT14=
PLAYORDER=
